<svg width="81" height="80" viewBox="0 0 81 80" fill="none" xmlns="http://www.w3.org/2000/svg">
<mask id="mask0_13601_135395" style="mask-type:alpha" maskUnits="userSpaceOnUse" x="5" y="0" width="71" height="81">
<path fill-rule="evenodd" clip-rule="evenodd" d="M50.5684 78.4624C50.8686 78.363 51.1677 78.2639 51.4656 78.1692C46.4309 75.8062 41.699 72.9109 37.9712 68.6953C33.8817 64.0891 31.1047 58.8217 29.7629 52.8279C29.7406 52.7287 29.716 52.628 29.6911 52.5263C29.6568 52.3858 29.6221 52.2436 29.5922 52.1013C29.4216 51.3057 29.2845 50.5479 29.1746 49.8376C29.2934 50.5965 29.4354 51.3521 29.6005 52.1031C29.6303 52.2453 29.6651 52.3876 29.6994 52.5281C29.7242 52.6297 29.7488 52.7305 29.7712 52.8296C29.8116 53.0113 29.8519 53.182 29.8941 53.3563C29.9001 53.3834 29.9065 53.41 29.9131 53.4376C29.9207 53.4692 29.9285 53.502 29.9364 53.538C29.9455 53.5744 29.9544 53.6109 29.9632 53.6473C29.9831 53.7288 30.0029 53.81 30.0245 53.8903C30.0328 53.924 30.0415 53.9576 30.0502 53.9912C30.0589 54.0248 30.0676 54.0584 30.0758 54.092C30.0905 54.1455 30.1048 54.1991 30.119 54.2527C30.1332 54.3063 30.1475 54.3599 30.1621 54.4134L30.219 54.6223C30.2243 54.6409 30.2296 54.6596 30.2349 54.6783C30.259 54.7637 30.2834 54.8498 30.309 54.9347C30.3157 54.9577 30.3222 54.9806 30.3287 55.0036C30.3418 55.0496 30.3548 55.0957 30.3695 55.1418C30.4007 55.249 30.4319 55.3543 30.465 55.4597C30.4832 55.5246 30.5032 55.5895 30.5233 55.6544L30.5237 55.6558L30.6338 55.9991C30.643 56.0263 30.6517 56.0541 30.6605 56.0818C30.6692 56.1095 30.6779 56.1371 30.6871 56.1644C30.7421 56.3333 30.799 56.5004 30.8559 56.6675C30.912 56.8304 30.9699 56.9915 31.0277 57.1525L31.0303 57.1597L31.0909 57.3232C31.1312 57.434 31.1735 57.5466 31.2157 57.6574L31.2891 57.839C31.3193 57.9187 31.3506 57.9972 31.3821 58.0763C31.3909 58.0983 31.3996 58.1203 31.4084 58.1424C31.4182 58.1672 31.4282 58.1923 31.4383 58.2175C31.4548 58.2588 31.4714 58.3005 31.4874 58.3422L31.6085 58.6364L31.6088 58.6371C31.6362 58.7022 31.6636 58.7674 31.6929 58.8326C31.7351 58.9325 31.7773 59.0324 31.8214 59.1323C31.8471 59.194 31.8746 59.2576 31.9022 59.3139L32.0472 59.6372L32.1187 59.7952L32.119 59.7957C32.1923 59.9536 32.2657 60.1114 32.3427 60.2693L32.3537 60.2911C32.4253 60.4418 32.4987 60.5926 32.5739 60.7415C32.5842 60.7626 32.5948 60.7837 32.6054 60.8049C32.6214 60.8366 32.6374 60.8687 32.6529 60.9014L32.8126 61.2119L32.908 61.3936C32.9275 61.4308 32.9471 61.4669 32.9667 61.5032C32.9969 61.559 33.0273 61.6153 33.0585 61.6769L33.1613 61.8586C33.2127 61.9494 33.2622 62.0402 33.3136 62.1347L33.4201 62.3163C33.4715 62.4095 33.5247 62.5022 33.5798 62.5942C33.6008 62.6324 33.6227 62.6707 33.6448 62.7094C33.6573 62.7313 33.6699 62.7535 33.6826 62.7758C33.7413 62.8775 33.8019 62.9774 33.8661 63.0773L33.9561 63.2299L34.2314 63.6767L34.2497 63.7076C34.2802 63.7552 34.3114 63.8031 34.3428 63.851C34.4022 63.942 34.4618 64.0331 34.5159 64.1235L34.615 64.2761L34.7986 64.5649C34.8142 64.5893 34.8299 64.6134 34.8457 64.6376C34.8688 64.673 34.8921 64.7088 34.916 64.7465C34.9323 64.7705 34.9485 64.7947 34.9646 64.8189C35.0086 64.8847 35.0526 64.9506 35.0995 65.0117L35.2243 65.1933L35.4079 65.4513L35.5364 65.6329L35.7199 65.8944L35.8448 66.0652L36.0577 66.3485L36.1678 66.492C36.2743 66.6337 36.3826 66.7735 36.4927 66.9134C36.965 67.5103 37.4545 68.0976 37.9611 68.6752C39.794 70.7154 41.8768 72.5214 44.1613 74.0515C45.8906 75.2164 47.6936 76.2703 49.5594 77.2065L50.0017 77.4281L50.0293 77.4408L50.4533 77.6515L50.4991 77.6733L50.9048 77.8694L50.9727 77.9022L51.4444 78.1274C57.7403 75.9874 63.302 72.1401 67.4956 67.0242C69.3439 64.8101 70.2176 63.2099 70.2176 63.2099L70.2378 63.2571C73.6456 57.7524 75.4443 51.4205 75.434 44.9649C75.434 25.592 59.5627 9.88625 39.9838 9.88625C36.1698 9.88222 32.3802 10.4882 28.7617 11.6808V43.9205C28.7617 43.9205 28.7215 44.6623 28.7809 45.9366C28.7796 45.9212 28.7781 45.9062 28.7767 45.8915C28.7744 45.8673 28.7722 45.8442 28.7708 45.8222C28.7708 45.8359 28.7708 45.8496 28.7709 45.8633C28.7152 44.638 28.7534 43.9279 28.7534 43.9279V9.68654C28.0009 3.98692 23.1736 0.713901 19.3925 0.147208C13.5686 -0.724627 8.17413 2.34496 6.25423 7.61229C5.76416 8.95819 5.60998 10.3404 5.60998 11.759C5.60726 15.8722 5.60028 19.9852 5.5933 24.0981C5.58139 31.1111 5.56949 38.124 5.57874 45.1375C5.60995 67.4202 25.4404 83.5709 47.556 79.3189C48.5669 79.125 49.5736 78.7917 50.5684 78.4624ZM46.8553 35.3517C44.9419 34.0865 42.6924 33.4113 40.3912 33.4113C37.3054 33.4113 34.346 34.6243 32.164 36.7836C29.982 38.9428 28.7561 41.8714 28.7561 44.925C28.7561 47.2022 29.4385 49.4282 30.717 51.3216C31.9955 53.215 33.8127 54.6908 35.9387 55.5622C38.0647 56.4337 40.4041 56.6617 42.6611 56.2174C44.9181 55.7732 46.9913 54.6766 48.6185 53.0664C50.2456 51.4562 51.3538 49.4046 51.8027 47.1712C52.2516 44.9377 52.0212 42.6227 51.1406 40.5189C50.26 38.415 48.7687 36.6168 46.8553 35.3517Z" fill="url(#paint0_linear_13601_135395)"/>
</mask>
<g mask="url(#mask0_13601_135395)">
<path d="M70.2378 63.2571C73.6456 57.7524 75.4443 51.4205 75.434 44.9649C75.434 25.592 59.5627 9.88625 39.9838 9.88625C36.1698 9.88222 32.3802 10.4882 28.7617 11.6808V43.9205C28.7617 43.9205 28.7195 44.6997 28.7855 46.0329C28.7855 45.9548 28.7745 45.884 28.7708 45.8222C28.7708 45.9403 28.7709 46.0565 28.7837 46.1746C28.8983 48.1689 29.1714 50.1512 29.6005 52.1031C29.6519 52.3483 29.7179 52.5935 29.7712 52.8296C29.8115 53.0112 29.8519 53.182 29.8941 53.3563C29.907 53.4145 29.9217 53.4708 29.9364 53.538C29.9658 53.656 29.9933 53.7741 30.0245 53.8903C30.041 53.9576 30.0593 54.0247 30.0758 54.092C30.1052 54.1991 30.1328 54.3063 30.1621 54.4134L30.219 54.6223C30.2484 54.7259 30.2777 54.8312 30.3089 54.9347C30.3291 55.0038 30.3475 55.0728 30.3695 55.1418C30.4007 55.249 30.4319 55.3543 30.465 55.4597C30.4833 55.525 30.5035 55.5904 30.5237 55.6558L30.6338 55.9991C30.6522 56.0536 30.6687 56.1099 30.6871 56.1644C30.7421 56.3333 30.799 56.5004 30.8559 56.6675C30.9128 56.8328 30.9716 56.9963 31.0303 57.1597L31.0909 57.3232C31.1312 57.434 31.1735 57.5466 31.2157 57.6574L31.2891 57.839C31.3276 57.9408 31.368 58.0407 31.4084 58.1424C31.4341 58.2078 31.4617 58.275 31.4873 58.3422L31.6085 58.6364C31.636 58.7018 31.6635 58.7672 31.6929 58.8326C31.7351 58.9325 31.7773 59.0324 31.8214 59.1323C31.8471 59.194 31.8746 59.2576 31.9022 59.3139L32.0472 59.6372L32.1187 59.7952C32.1922 59.9532 32.2656 60.1113 32.3427 60.2693L32.3537 60.2911C32.4253 60.4418 32.4987 60.5926 32.5739 60.7415C32.5996 60.7942 32.6271 60.8469 32.6528 60.9014L32.8126 61.2119L32.908 61.3936C32.9576 61.488 33.0071 61.5752 33.0585 61.6769L33.1613 61.8586C33.2127 61.9494 33.2622 62.0402 33.3136 62.1346L33.4201 62.3163C33.4715 62.4095 33.5247 62.5022 33.5798 62.5942C33.6128 62.6541 33.6477 62.7141 33.6826 62.7758C33.7413 62.8775 33.8019 62.9774 33.8661 63.0773L33.956 63.2299L34.2314 63.6767L34.2497 63.7076C34.3378 63.8456 34.4333 63.9855 34.5159 64.1235L34.615 64.2761L34.7985 64.5649C34.8371 64.6248 34.8756 64.683 34.916 64.7465C34.9766 64.8355 35.0353 64.9282 35.0995 65.0117L35.2243 65.1933L35.4079 65.4513L35.5364 65.6329L35.7199 65.8944L35.8448 66.0652L36.0577 66.3485L36.1678 66.492C36.2743 66.6337 36.3826 66.7735 36.4927 66.9134C36.965 67.5103 37.4545 68.0976 37.9611 68.6752C39.794 70.7154 41.8768 72.5214 44.1613 74.0515C45.8906 75.2164 47.6936 76.2703 49.5594 77.2065L50.0017 77.4281L50.0293 77.4408L50.4532 77.6515L50.4991 77.6733L50.9048 77.8694L50.9727 77.9022L51.4444 78.1274C57.7403 75.9874 63.3019 72.1401 67.4956 67.0242C69.3439 64.8101 70.2176 63.2099 70.2176 63.2099L70.2378 63.2571ZM40.3912 33.4113C42.6924 33.4113 44.9419 34.0865 46.8553 35.3517C48.7687 36.6168 50.26 38.415 51.1406 40.5189C52.0212 42.6227 52.2516 44.9377 51.8027 47.1712C51.3538 49.4046 50.2456 51.4562 48.6184 53.0664C46.9913 54.6766 44.9181 55.7732 42.6611 56.2174C40.4041 56.6617 38.0647 56.4337 35.9387 55.5622C33.8127 54.6908 31.9955 53.215 30.717 51.3216C29.4385 49.4282 28.7561 47.2022 28.7561 44.925C28.7561 41.8714 29.982 38.9428 32.164 36.7836C34.346 34.6243 37.3054 33.4113 40.3912 33.4113Z" fill="url(#paint1_linear_13601_135395)"/>
<g filter="url(#filter0_d_13601_135395)">
<path d="M51.4656 78.1692C50.1807 78.5779 48.872 79.0664 47.556 79.3189C25.4404 83.5709 5.60995 67.4202 5.57874 45.1375C5.56406 34.0107 5.60264 22.8858 5.60998 11.759C5.60998 10.3404 5.76416 8.95819 6.25423 7.61229C8.17413 2.34496 13.5686 -0.724627 19.3925 0.147209C23.1736 0.713901 28.0009 3.98692 28.7534 9.68654V43.9279C28.7534 43.9279 28.5699 47.3353 29.5922 52.1013C29.6436 52.3465 29.7097 52.5917 29.7629 52.8279C31.1047 58.8217 33.8817 64.0891 37.9712 68.6953C41.699 72.9109 46.4309 75.8062 51.4656 78.1692Z" fill="url(#paint2_linear_13601_135395)"/>
</g>
</g>
<defs>
<filter id="filter0_d_13601_135395" x="1.57544" y="-3.99988" width="53.8901" height="88.0005" filterUnits="userSpaceOnUse" color-interpolation-filters="sRGB">
<feFlood flood-opacity="0" result="BackgroundImageFix"/>
<feColorMatrix in="SourceAlpha" type="matrix" values="0 0 0 0 0 0 0 0 0 0 0 0 0 0 0 0 0 0 127 0" result="hardAlpha"/>
<feOffset/>
<feGaussianBlur stdDeviation="2"/>
<feComposite in2="hardAlpha" operator="out"/>
<feColorMatrix type="matrix" values="0 0 0 0 0.7 0 0 0 0 0 0 0 0 0 0.316 0 0 0 1 0"/>
<feBlend mode="normal" in2="BackgroundImageFix" result="effect1_dropShadow_13601_135395"/>
<feBlend mode="normal" in="SourceGraphic" in2="effect1_dropShadow_13601_135395" result="shape"/>
</filter>
<linearGradient id="paint0_linear_13601_135395" x1="75.4341" y1="0.000123087" x2="53.0617" y2="91.5988" gradientUnits="userSpaceOnUse">
<stop offset="0.197006" stop-color="#F54351"/>
<stop offset="1" stop-color="#D0008F"/>
</linearGradient>
<linearGradient id="paint1_linear_13601_135395" x1="75.4341" y1="9.88623" x2="51.9086" y2="85.3477" gradientUnits="userSpaceOnUse">
<stop offset="0.197006" stop-color="#F54351"/>
<stop offset="1" stop-color="#D0008F"/>
</linearGradient>
<linearGradient id="paint2_linear_13601_135395" x1="51.4656" y1="0.000123087" x2="19.7595" y2="85.2744" gradientUnits="userSpaceOnUse">
<stop offset="0.197006" stop-color="#F54351"/>
<stop offset="1" stop-color="#D0008F"/>
</linearGradient>
</defs>
</svg>
